<mxfile host="app.diagrams.net" modified="2023-06-26T08:27:45.571Z" agent="Mozilla/5.0 (Macintosh; Intel Mac OS X 10_15_7) AppleWebKit/537.36 (KHTML, like Gecko) Chrome/114.0.0.0 Safari/537.36" version="21.5.0" etag="9eA8BEfwisoJD2sSDF8w" type="github">
  <diagram name="第 1 页" id="G7Pcc6TmtywT6FfzIDnz">
    <mxGraphModel>
      <root>
        <mxCell id="0" />
        <mxCell id="1" parent="0" />
      </root>
    </mxGraphModel>
  </diagram>
</mxfile>
